<svg width="507" height="542" viewBox="0 0 507 542" fill="none" xmlns="http://www.w3.org/2000/svg">
<path d="M232.82 5.32413C243.324 3.98506 258.144 4.76526 268.771 5.24462C324.414 7.75098 377.731 29.0547 420.279 64.99C469.426 106.661 500.056 166.122 505.456 230.343C510.706 294.183 490.426 357.498 449.064 406.401C402.571 461.276 339.639 486.785 269.214 492.642C268.817 485.609 269.341 478.788 269.724 471.757C308.371 470.102 346.014 458.887 379.269 439.116C421.569 413.617 453.849 374.394 470.746 327.979C474.856 316.95 477.309 307.076 480.204 295.716C417.781 301.884 379.232 313.861 330.894 356.124C348.092 346.764 363.166 336.015 381.961 329.135C404.439 320.909 426.076 318.255 449.566 315.735C435.061 365.966 392.761 394.859 344.409 407.546C320.191 413.901 294.556 416.837 276.669 435.148C260.079 452.125 259.636 467.504 258.871 489.311C258.511 500.504 259.153 501.224 258.871 504.896C258.59 508.567 260.403 534.75 249.513 527.458C245.613 521.179 248.866 480.807 244.996 465.111C236.146 421.773 195.631 416.621 159.04 407.379C117.394 396.86 65.6558 361.374 56.586 315.634C64.9245 317.219 76.842 318.025 85.9582 319.584C117.829 325.036 139.192 334.709 166.635 351.117C166.454 350.723 166.211 350.123 165.896 349.847C126.093 314.913 78.5767 299.767 26.574 295.962C36.1995 333.3 52.473 367.137 78.5235 395.938C119.042 441.368 176.092 468.634 236.881 471.622C237.444 478.603 237.339 485.655 237.346 492.661C177.813 486.886 127.969 468.973 82.4407 428.827C34.6162 386.639 5.50872 327.173 1.52322 263.515C-2.84778 198.608 19.359 134.713 63.0413 86.515C105.349 38.9406 169.432 9.11856 232.82 5.32413ZM257.289 283.311C258.647 290.694 259.561 306.508 258.586 313.956C262.996 305.509 268.561 296.528 278.139 293.434C280.719 292.599 286.779 291.537 289.006 293.132C289.074 295.37 288.159 296.415 286.321 298.184C277.224 306.92 266.304 321.436 262.681 333.625C257.709 350.36 260.064 376.304 259.637 394.537C259.352 407.079 259.352 420.076 259.082 432.703C286.929 367.942 328.561 323.054 394.839 296.013C428.521 282.271 448.899 281.819 483.354 277.938C489.354 218.603 474.346 158.037 436.314 111.42C397.314 63.3493 340.921 32.6188 279.399 25.9084C273.204 25.291 252.549 23.8417 246.691 24.7321C181.964 27.1695 125.285 50.5564 80.9002 98.5652C41.2357 141.935 20.1848 199.15 22.2795 257.891C22.5645 264.569 23.1967 271.567 23.7615 278.243C36.7807 279.137 49.4812 280.145 62.3565 282.365C114.711 291.388 168.247 321.322 203.27 361.462C221.909 382.491 236.724 406.623 247.044 432.763C244.501 404.466 252.061 352.174 241.231 328.063C237.886 320.623 233.182 313.694 227.869 307.514C224.551 303.652 217.836 298.487 215.965 294.059C217.895 292.241 219.588 292.397 222.163 292.424C233.956 292.544 240.856 303.271 247.134 311.792C247.096 306.551 246.706 277.566 253.816 277.734C255.661 279.539 256.434 280.803 257.289 283.311ZM281.176 416.602C301.021 399.278 320.356 384.245 343.329 371.239C351.594 366.564 395.439 346.362 395.896 345.64C394.854 345.639 393.826 345.603 392.799 345.704C348.391 353.671 307.261 374.657 281.626 412.581C280.396 414.406 279.197 415.608 278.769 417.71C280.157 417.542 280.066 417.495 281.176 416.602ZM228.084 418.406C210.896 387.08 169.893 360.352 136.056 350.431C130.426 348.781 114.743 345.249 109.241 345.552C132.786 355.804 155.427 365.545 177.304 379.247C196.631 391.351 210.664 404.308 228.084 418.406Z" fill="#1A1A17"/>
<path d="M250.315 176.899C256.638 176.52 263.905 178.345 269.178 181.897C275.02 185.82 279.033 191.932 280.308 198.851C283.623 216.099 271.263 227.296 255.25 229.889C239.883 230.333 226.214 224.23 224.259 207.373C223.344 199.991 225.436 192.551 230.065 186.729C235.518 180.01 242.05 177.798 250.315 176.899Z" fill="#1A1A17"/>
<path d="M311.845 111.531C319.18 107.83 326.755 106.743 334.683 109.328C343.188 112.1 350.073 118.596 354.063 126.527C357.295 132.958 358.713 140.575 356.283 147.524C354.49 152.662 350.755 156.452 345.858 158.719C339.858 161.497 331.623 162.232 325.428 159.636C320.785 157.689 303.61 133.474 297.933 127.121C300.378 123.92 305.703 116.54 308.403 114.083L311.845 111.531Z" fill="#1A1A17"/>
<path d="M279.085 230.011C313.105 229.187 322.998 273.529 286.803 279.936C280.128 280.781 272.41 280.099 266.56 276.529C261.445 273.381 257.8 268.315 256.45 262.462C252.37 245.459 263.185 233.784 279.085 230.011Z" fill="#1A1A17"/>
<path d="M174.103 108.453C191.044 106.396 196.762 114.815 205.293 127.455C204.095 129.228 202.106 131.714 200.628 133.243C193.389 140.731 187.458 154.837 178.248 159.457C177.649 159.68 177.043 159.882 176.431 160.062C139.282 170.997 137.589 117.118 174.103 108.453Z" fill="#1A1A17"/>
<path d="M219.455 230.06C226.03 229.946 231.355 230.671 237.063 234.332C242.95 238.085 247.068 244.063 248.478 250.905C251.493 266.129 242.493 277.497 227.597 280.132C219.111 280.266 212.43 280.183 205.053 275.11C190.888 265.369 192.667 246.067 205.446 235.99C210.241 232.209 213.339 230.956 219.455 230.06Z" fill="#1A1A17"/>
<path d="M338.41 214.947C377.41 213.561 369.363 269.069 331.225 263.434C315.94 256.06 312.625 241.405 302.125 226.48C318.122 222.604 323.68 219.856 338.41 214.947Z" fill="#1A1A17"/>
<path d="M103.587 130.987C121.969 129.555 128.405 144.506 141.862 155.268L142.627 155.872C131.608 162.894 124.124 169.171 113.808 176.724C80.5632 198.511 63.5952 139.005 103.587 130.987Z" fill="#1A1A17"/>
<path d="M393.04 130.96C432.55 128.931 435.033 187.974 395.575 179.302C389.883 177.123 368.605 160.037 362.178 154.912C370.135 146.522 381.97 133.594 393.04 130.96Z" fill="#1A1A17"/>
<path d="M403.645 187.509C406.368 187.649 408.483 187.818 411.138 188.555C416.823 190.175 421.623 194.013 424.45 199.205C434.935 218.272 418.938 242.67 394.458 235.312C386.688 232.137 374.898 222.847 367.78 217.544C371.89 211.961 376.383 206.39 380.793 201.037C387.873 192.438 392.605 188.538 403.645 187.509Z" fill="#1A1A17"/>
<path d="M157.385 214.988C166.746 214.278 189.408 223.658 202.033 226.681C194.801 236.243 186.459 252.416 179.554 259.385C152.891 281.395 120.272 227.916 157.385 214.988Z" fill="#1A1A17"/>
<path d="M96.1795 188.031C115.651 186.483 124.906 203.672 135.709 217.525C127.996 222.639 119.475 228.948 111.804 234.292C81.0115 252.329 57.9153 195.469 96.1795 188.031Z" fill="#1A1A17"/>
<path d="M314.035 169.169C347.68 166.157 347.238 210.557 310.075 217.259C304.18 218.447 295.503 219.167 289.51 219.561C284.838 196.093 287.313 175.57 314.035 169.169Z" fill="#1A1A17"/>
<path d="M178.491 169.232C191.706 168.035 203.947 172.103 211.91 183.258C219.463 193.836 217.05 207.692 214.975 219.673C212.192 219.544 209.857 219.196 207.118 218.813C199.969 218.118 191.708 217.104 184.861 215.075C165.313 209.28 157.969 179.025 178.491 169.232Z" fill="#1A1A17"/>
<path d="M274.315 132.006C310.945 131.2 316.098 167.982 287.065 176.739C286.428 176.833 285.79 176.923 285.16 177.008C262.338 180.066 246.873 159.276 258.798 137.979C261.438 133.278 269.283 132.529 274.315 132.006Z" fill="#1A1A17"/>
<path d="M217.247 80.0049C218.193 79.9202 219.14 79.8639 220.089 79.8369C249.888 78.9307 248.965 103.311 249.168 125.308C243.828 125.605 238.503 125.533 233.157 125.52C225.837 125.642 220.02 125.768 213.168 122.459C207.435 119.733 203.06 114.789 201.05 108.767C196.412 94.9441 204.214 84.3267 217.247 80.0049Z" fill="#1A1A17"/>
<path d="M277.593 79.9945C278.02 79.942 278.44 79.894 278.86 79.8505C311.643 76.5001 311.35 124.081 283.84 124.794C275.478 125.764 264.678 125.632 256.053 125.708C253.12 104.422 254.395 86.5669 277.593 79.9945Z" fill="#1A1A17"/>
<path d="M223.633 132.014C234.004 131.768 245.913 131.606 248.635 144.466C250.173 151.725 249.475 160.706 245.245 167.041C240.58 174.025 234.453 176.02 226.533 177.515C219.689 177.391 214.463 176.751 208.676 172.723C203.799 169.36 200.512 164.145 199.581 158.294C198.665 152.492 200.122 146.565 203.624 141.849C208.89 134.834 215.529 133.245 223.633 132.014Z" fill="#1A1A17"/>
<path d="M249.565 39.5994C254.86 38.5844 263.058 40.2783 267.843 42.7884C276.873 47.5251 282.805 59.3045 277.285 68.8363C272.965 76.2924 264.003 79.098 256.18 81.1438C244.323 82.0838 227.542 76.6862 225.69 63.0741C225.036 58.1072 226.408 53.0862 229.497 49.1425C234.543 42.6654 241.788 40.4928 249.565 39.5994Z" fill="#1A1A17"/>
<path d="M138.481 81.5398C148.625 80.3613 157.357 83.8046 162.289 93.3912C167.908 104.312 153.162 112.797 147.306 120.306C142.707 126.203 140.545 129.329 137.65 136.534C136.205 137.035 135.63 136.686 134.385 136.039C107.959 122.304 107.333 89.3485 138.481 81.5398Z" fill="#1A1A17"/>
<path d="M357.543 81.4551C375.528 80.2653 391.278 91.0304 389.673 110.289C388.735 121.6 382 127.201 373.908 133.777C371.8 135.017 370.615 136.298 368.688 135.971C366.085 131.426 362.763 125.089 359.658 120.82C353.598 112.504 336.385 105.168 343.645 92.4123C347.23 86.1137 350.748 83.4911 357.543 81.4551Z" fill="#1A1A17"/>
<path d="M303.88 52.9556C339.708 50.1147 355 88.5271 323.148 100.673C320.515 101.02 316.225 100.841 313.443 100.805C306.295 83.3103 302.178 79.7859 286.135 70.705C289.023 59.8056 292.818 55.4695 303.88 52.9556Z" fill="#1A1A17"/>
<path d="M190.275 53.0284C206.446 51.6353 213.409 55.0666 218.499 70.6021C201.963 79.2825 197.877 82.8909 191.487 100.387C187.379 101.933 177.729 100.615 174.383 97.6702C155.196 80.7851 167.381 56.2954 190.275 53.0284Z" fill="#1A1A17"/>
<path d="M130.755 231.375C132.325 233.434 132.884 238.221 133.623 241.11C137.09 254.663 142.616 262.15 152.49 271.392C142.43 279.848 135.36 281.287 122.778 281.258C121.08 280.888 119.397 280.448 117.734 279.939C111.283 277.974 104.63 273.267 101.737 267.129C91.8957 246.247 117.094 237.597 130.755 231.375Z" fill="#1A1A17"/>
<path d="M372.108 231.192C377.635 232.857 387.918 237.869 392.703 240.999C412.713 254.08 402.07 277.167 381.123 280.726C379.975 280.837 378.835 280.927 377.688 280.996C367.308 281.596 358.405 278.228 350.673 271.308C365.493 259.169 369.513 249.434 372.108 231.192Z" fill="#1A1A17"/>
<path d="M144.332 165.486C149.159 164.995 156.608 165.143 160.642 168.188C162.778 170.631 159.642 180.414 159.428 183.724C158.533 197.554 163.818 209.887 144.477 210.452C122.103 204.925 112.911 173.069 144.332 165.486Z" fill="#1A1A17"/>
<path d="M351.97 165.464C378.858 163.878 390.257 187.426 367.802 206.462C363.64 208.989 362.29 209.346 357.558 210.755C339.655 206.304 345.333 195.035 344.253 180.983C343.945 176.988 342.873 173.15 341.77 169.304C346.27 166.972 347.013 166.613 351.97 165.464Z" fill="#1A1A17"/>
<path d="M187.298 265.044C187.404 265.056 187.515 265.045 187.616 265.082C190.447 266.109 204.812 287.872 206.8 291.828C206.889 302.199 188.756 305.049 181.309 305.099C169.377 303.235 155.695 295.31 161.65 280.261C165.357 270.896 178.391 268.129 187.298 265.044Z" fill="#1A1A17"/>
<path d="M316.248 264.717C325.908 269.739 353.013 272.026 341.68 294.666C338.77 300.477 331.57 303.214 325.435 304.593C317.5 305.511 299.883 303.244 297.858 294.869C296.815 290.565 312.978 269.48 316.248 264.717Z" fill="#1A1A17"/>
<path d="M308.403 114.083L307.96 112.04C306.498 111.233 306.558 111.329 305.59 109.979C307.75 109.739 308.133 109.67 310.188 108.991C309.348 106.868 309.025 105.955 308.53 103.73L309.355 103.227L310.383 103.894C311.98 107.292 311.928 107.865 311.845 111.531L308.403 114.083Z" fill="#020102" fill-opacity="0.01"/>
</svg>
